<svg width="28" height="28" viewBox="0 0 28 28" fill="none" xmlns="http://www.w3.org/2000/svg">
<path d="M23.697 14.0001V26.1213H4.30306V14.0001M14 26.1213V7.93951M14 7.93951H8.54548C7.7418 7.93951 6.97103 7.62025 6.40273 7.05196C5.83444 6.48367 5.51518 5.7129 5.51518 4.90921C5.51518 4.10552 5.83444 3.33475 6.40273 2.76646C6.97103 2.19817 7.7418 1.87891 8.54548 1.87891C12.7879 1.87891 14 7.93951 14 7.93951ZM14 7.93951H19.4546C20.2583 7.93951 21.029 7.62025 21.5973 7.05196C22.1656 6.48367 22.4849 5.7129 22.4849 4.90921C22.4849 4.10552 22.1656 3.33475 21.5973 2.76646C21.029 2.19817 20.2583 1.87891 19.4546 1.87891C15.2121 1.87891 14 7.93951 14 7.93951ZM1.87881 7.93951H26.1212V14.0001H1.87881V7.93951Z" stroke="black" stroke-width="2.42909" stroke-linecap="round" stroke-linejoin="round"/>
</svg>
